<mxfile host="app.diagrams.net" agent="Mozilla/5.0 (Windows NT 10.0; Win64; x64) AppleWebKit/537.36 (KHTML, like Gecko) Chrome/129.0.0.0 Safari/537.36" version="24.7.17">
  <diagram name="Page-1" id="c9M1TUY1aTd4xt1866uq">
    <mxGraphModel dx="1434" dy="1915" grid="1" gridSize="10" guides="1" tooltips="1" connect="1" arrows="1" fold="1" page="1" pageScale="1" pageWidth="827" pageHeight="1169" math="0" shadow="0">
      <root>
        <mxCell id="0" />
        <mxCell id="1" parent="0" />
        <mxCell id="QgRw9uz2MA8Z4OPdevN0-3" value="" style="shape=image;html=1;verticalAlign=top;verticalLabelPosition=bottom;labelBackgroundColor=#ffffff;imageAspect=0;aspect=fixed;image=https://cdn0.iconfinder.com/data/icons/forgen-seo-1/64/bug-128.png" vertex="1" parent="1">
          <mxGeometry x="94" y="-431.2" width="128" height="128" as="geometry" />
        </mxCell>
        <mxCell id="QgRw9uz2MA8Z4OPdevN0-5" value="" style="endArrow=none;html=1;rounded=0;" edge="1" parent="1" source="QgRw9uz2MA8Z4OPdevN0-8" target="QgRw9uz2MA8Z4OPdevN0-3">
          <mxGeometry width="50" height="50" relative="1" as="geometry">
            <mxPoint x="207" y="-481.2" as="sourcePoint" />
            <mxPoint x="337" y="-381.2" as="targetPoint" />
          </mxGeometry>
        </mxCell>
        <mxCell id="QgRw9uz2MA8Z4OPdevN0-13" value="" style="group" vertex="1" connectable="0" parent="1">
          <mxGeometry x="94" y="-220" width="110" height="108" as="geometry" />
        </mxCell>
        <mxCell id="QgRw9uz2MA8Z4OPdevN0-8" value="" style="sketch=0;outlineConnect=0;fontColor=#232F3E;gradientColor=none;fillColor=#232F3D;strokeColor=none;dashed=0;verticalLabelPosition=bottom;verticalAlign=top;align=center;html=1;fontSize=12;fontStyle=0;aspect=fixed;pointerEvents=1;shape=mxgraph.aws4.source_code;" vertex="1" parent="QgRw9uz2MA8Z4OPdevN0-13">
          <mxGeometry x="26.5" width="57" height="78" as="geometry" />
        </mxCell>
        <mxCell id="QgRw9uz2MA8Z4OPdevN0-12" value="Key sniffing DLL" style="text;html=1;align=center;verticalAlign=middle;resizable=0;points=[];autosize=1;strokeColor=none;fillColor=none;" vertex="1" parent="QgRw9uz2MA8Z4OPdevN0-13">
          <mxGeometry y="78" width="110" height="30" as="geometry" />
        </mxCell>
        <mxCell id="QgRw9uz2MA8Z4OPdevN0-17" value="" style="image;points=[];aspect=fixed;html=1;align=center;shadow=0;dashed=0;image=img/lib/allied_telesis/computer_and_terminals/Personal_Computer_with_Server.svg;" vertex="1" parent="1">
          <mxGeometry x="607" y="-431.2" width="122.4" height="122.4" as="geometry" />
        </mxCell>
        <mxCell id="QgRw9uz2MA8Z4OPdevN0-18" value="" style="endArrow=classic;html=1;rounded=0;exitX=0.977;exitY=0.453;exitDx=0;exitDy=0;exitPerimeter=0;" edge="1" parent="1" source="QgRw9uz2MA8Z4OPdevN0-3" target="QgRw9uz2MA8Z4OPdevN0-17">
          <mxGeometry width="50" height="50" relative="1" as="geometry">
            <mxPoint x="247" y="-361.2" as="sourcePoint" />
            <mxPoint x="297" y="-411.2" as="targetPoint" />
          </mxGeometry>
        </mxCell>
        <mxCell id="QgRw9uz2MA8Z4OPdevN0-14" value="" style="ellipse;shape=cloud;whiteSpace=wrap;html=1;labelBackgroundColor=#a39595;fillColor=#dae8fc;strokeColor=#6c8ebf;" vertex="1" parent="1">
          <mxGeometry x="357" y="-410" width="120" height="80" as="geometry" />
        </mxCell>
        <mxCell id="QgRw9uz2MA8Z4OPdevN0-19" value="Transfering logs in chunks every 10 secs" style="text;html=1;align=center;verticalAlign=middle;resizable=0;points=[];autosize=1;strokeColor=none;fillColor=none;" vertex="1" parent="1">
          <mxGeometry x="294" y="-522" width="240" height="30" as="geometry" />
        </mxCell>
        <mxCell id="QgRw9uz2MA8Z4OPdevN0-23" value="" style="endArrow=classic;html=1;rounded=0;" edge="1" parent="1" source="QgRw9uz2MA8Z4OPdevN0-3" target="QgRw9uz2MA8Z4OPdevN0-27">
          <mxGeometry width="50" height="50" relative="1" as="geometry">
            <mxPoint x="120" y="-420" as="sourcePoint" />
            <mxPoint x="120" y="-510" as="targetPoint" />
          </mxGeometry>
        </mxCell>
        <mxCell id="QgRw9uz2MA8Z4OPdevN0-24" value="" style="endArrow=classic;html=1;rounded=0;exitX=0.641;exitY=-0.006;exitDx=0;exitDy=0;exitPerimeter=0;" edge="1" parent="1" source="QgRw9uz2MA8Z4OPdevN0-3" target="QgRw9uz2MA8Z4OPdevN0-28">
          <mxGeometry width="50" height="50" relative="1" as="geometry">
            <mxPoint x="210" y="-431.2" as="sourcePoint" />
            <mxPoint x="180" y="-540" as="targetPoint" />
          </mxGeometry>
        </mxCell>
        <mxCell id="QgRw9uz2MA8Z4OPdevN0-29" value="" style="shape=image;html=1;verticalAlign=top;verticalLabelPosition=bottom;labelBackgroundColor=#ffffff;imageAspect=0;aspect=fixed;image=https://cdn1.iconfinder.com/data/icons/unicons-line-vol-5/24/process-128.png" vertex="1" parent="1">
          <mxGeometry x="372" y="-500" width="90" height="90" as="geometry" />
        </mxCell>
        <mxCell id="QgRw9uz2MA8Z4OPdevN0-31" value="" style="group" vertex="1" connectable="0" parent="1">
          <mxGeometry x="47.5" y="-616" width="70" height="108" as="geometry" />
        </mxCell>
        <mxCell id="QgRw9uz2MA8Z4OPdevN0-20" value="" style="sketch=0;outlineConnect=0;fontColor=#232F3E;gradientColor=none;fillColor=#232F3D;strokeColor=none;dashed=0;verticalLabelPosition=bottom;verticalAlign=top;align=center;html=1;fontSize=12;fontStyle=0;aspect=fixed;pointerEvents=1;shape=mxgraph.aws4.document;" vertex="1" parent="QgRw9uz2MA8Z4OPdevN0-31">
          <mxGeometry x="6.5" width="57" height="78" as="geometry" />
        </mxCell>
        <mxCell id="QgRw9uz2MA8Z4OPdevN0-27" value="Key logs" style="text;html=1;align=center;verticalAlign=middle;resizable=0;points=[];autosize=1;strokeColor=none;fillColor=none;" vertex="1" parent="QgRw9uz2MA8Z4OPdevN0-31">
          <mxGeometry y="78" width="70" height="30" as="geometry" />
        </mxCell>
        <mxCell id="QgRw9uz2MA8Z4OPdevN0-32" value="" style="group" vertex="1" connectable="0" parent="1">
          <mxGeometry x="170" y="-616" width="110" height="108" as="geometry" />
        </mxCell>
        <mxCell id="QgRw9uz2MA8Z4OPdevN0-21" value="" style="sketch=0;outlineConnect=0;fontColor=#232F3E;gradientColor=none;fillColor=#232F3D;strokeColor=none;dashed=0;verticalLabelPosition=bottom;verticalAlign=top;align=center;html=1;fontSize=12;fontStyle=0;aspect=fixed;pointerEvents=1;shape=mxgraph.aws4.document;" vertex="1" parent="QgRw9uz2MA8Z4OPdevN0-32">
          <mxGeometry x="26.5" width="57" height="78" as="geometry" />
        </mxCell>
        <mxCell id="QgRw9uz2MA8Z4OPdevN0-28" value="functionality logs" style="text;html=1;align=center;verticalAlign=middle;resizable=0;points=[];autosize=1;strokeColor=none;fillColor=none;" vertex="1" parent="QgRw9uz2MA8Z4OPdevN0-32">
          <mxGeometry y="78" width="110" height="30" as="geometry" />
        </mxCell>
        <mxCell id="QgRw9uz2MA8Z4OPdevN0-33" value="my computer" style="text;html=1;align=center;verticalAlign=middle;resizable=0;points=[];autosize=1;strokeColor=none;fillColor=none;" vertex="1" parent="1">
          <mxGeometry x="615" y="-482" width="90" height="30" as="geometry" />
        </mxCell>
        <mxCell id="QgRw9uz2MA8Z4OPdevN0-34" value="Text" style="text;strokeColor=none;align=center;fillColor=none;html=1;verticalAlign=middle;whiteSpace=wrap;rounded=0;" vertex="1" parent="1">
          <mxGeometry x="380" y="-480" width="60" height="30" as="geometry" />
        </mxCell>
      </root>
    </mxGraphModel>
  </diagram>
</mxfile>
